<svg width="64" height="64" viewBox="0 0 64 64" fill="none" xmlns="http://www.w3.org/2000/svg">
<circle cx="32" cy="32" r="28.9349" fill="white" stroke="black" stroke-width="6.13016"/>
<path d="M32.3465 34.7967V29.1658H45.2698V40.7045C42.7959 42.3907 40.6051 43.5415 38.6974 44.1569C36.8019 44.76 34.5496 45.0615 31.9403 45.0615C28.7279 45.0615 26.1063 44.5138 24.0755 43.4184C22.057 42.323 20.4878 40.6922 19.3677 38.526C18.26 36.3598 17.7062 33.8736 17.7062 31.0674C17.7062 28.1135 18.3154 25.5473 19.5339 23.3688C20.7524 21.178 22.537 19.5164 24.8878 18.3841C26.7217 17.5102 29.1895 17.0733 32.2911 17.0733C35.2819 17.0733 37.5158 17.344 38.9927 17.8856C40.482 18.4271 41.7128 19.2702 42.6851 20.4149C43.6698 21.5472 44.4082 22.9872 44.9006 24.735L36.8327 26.175C36.5004 25.1534 35.9342 24.3719 35.1342 23.8303C34.3465 23.2888 33.3372 23.018 32.1064 23.018C30.2726 23.018 28.8079 23.658 27.7125 24.938C26.6294 26.2058 26.0879 28.2181 26.0879 30.9751C26.0879 33.9044 26.6356 35.9967 27.731 37.2521C28.8387 38.5075 30.3772 39.1352 32.3465 39.1352C33.2819 39.1352 34.1742 38.9999 35.0234 38.7291C35.8727 38.4583 36.845 37.9968 37.9404 37.3444V34.7967H32.3465Z" fill="black"/>
</svg>
